<?xml version="1.0" encoding="utf-8"?>
<!-- Generator: Adobe Illustrator 27.0.1, SVG Export Plug-In . SVG Version: 6.00 Build 0)  -->
<svg version="1.1" id="Layer_1" xmlns="http://www.w3.org/2000/svg" xmlns:xlink="http://www.w3.org/1999/xlink" x="0px" y="0px"
	 viewBox="0 0 897.5 70.1" style="enable-background:new 0 0 897.5 70.1;" xml:space="preserve">
<style type="text/css">
	.st0{fill:none;}
	.st1{fill:#17488F;}
	.st2{fill:#FFFFFF;}
</style>
<g>
	<g>
		<path class="st0" d="M858.8,22.1l4.8,3.6c0.2,0,0.4,0,0.7,0l-4.5-4.9C859.4,21.2,859.1,21.7,858.8,22.1z"/>
		<path class="st0" d="M873.1,25.2l-7.3-7.8l6.3-1.1l8.5,6.8l-6.9-7.1l13.1-2.3l-13.3,1.7l4.5-9l-6.1,9.1l-0.1,0.1l-6.3,0.8l4.7-9.8
			l-7,10l-0.1,0.1l-2.1,0.3c-0.1,0.5-0.2,0.9-0.4,1.4l2.7-0.5L873.1,25.2z"/>
		<path class="st0" d="M860.6,9.4c0.1,0.3,0.2,0.6,0.3,0.9l1.6-3.5L860.6,9.4z"/>
		<path class="st1" d="M860.6,9.4l1.9-2.6l-1.6,3.5c0.7,2.2,0.7,4.5,0.3,6.6l2.1-0.3l0.1-0.1l7-10l-4.7,9.8l6.3-0.8l0.1-0.1l6.1-9.1
			l-4.5,9l13.3-1.7L873.7,16l6.9,7.1l-8.5-6.8l-6.3,1.1l7.3,7.8l-9.6-7.4l-2.7,0.5c-0.3,0.8-0.7,1.7-1.1,2.4l4.5,4.9
			c0.4,0,0.9-0.1,1.3-0.2l3.2-0.5l0.2,3.3c0,0.6,0.1,1.2,0.2,1.7c1-0.3,2-0.5,3-0.6c3.1-0.5,6.2-0.4,9,0.1
			c0.9-7.5,7.4-14.4,16.4-17.5c-9.7-0.3-17.9-4.9-21-12c-2.6,1.3-5.4,2.3-8.5,2.7c-4.1,0.6-8.1,0.3-11.7-0.7
			c-0.1,0.5-0.2,0.9-0.3,1.4c1.6,1.1,3,2.7,3.9,4.5C860.2,8.4,860.5,8.9,860.6,9.4z"/>
		<path class="st1" d="M857,23.9c0.1,0.3,0.1,0.7,0.1,1c2.1,0.6,4.3,0.8,6.4,0.7l-4.8-3.6C858.2,22.8,857.7,23.4,857,23.9z"/>
		<path class="st2" d="M854.9,33.2c-0.4,0.6-0.8,1.1-1.3,1.6l10,0.9L854.9,33.2z"/>
		<path class="st2" d="M849.4,37.8c-0.7,0.3-1.3,0.5-2,0.7l-2.2,7L849.4,37.8z"/>
		<path class="st1" d="M854.9,33.2l8.7,2.6l-10-0.9c-0.3,0.3-0.7,0.7-1,1l1.9,3.9l0.1,0l11.7,3.3l-10.8-1.2l2.8,5.7l0.1,0l10.6,2.7
			l-9.9-1.3l6,12l-6.6-11.6l-4.4,8.8l3.6-10.3l-3.1-5.5l-5,9.5l3.8-11.5l-2.1-3.7c-0.4,0.3-0.8,0.5-1.2,0.7
			c-0.3,0.1-0.5,0.3-0.8,0.4l-4.2,7.8l2.2-7c-2.1,0.6-4.3,0.6-6.4,0.1c-0.9,1.7-2,3.3-3.3,4.7c3,2.3,5.6,5.3,7.6,9
			c1.5,2.8,2.4,5.7,2.9,8.5c7.4-1.6,16,2.2,21.9,9.7c-3-9.2-1.3-18.5,4.4-23.8c-2.1-2-3.9-4.4-5.4-7.1c-1.9-3.7-3-7.5-3.2-11.2
			c-2.9,0.5-6,0.3-9-0.4C856.7,29.9,856,31.6,854.9,33.2z"/>
		<path class="st1" d="M855.6,19.7c0.2,0.3,0.3,0.7,0.5,1c2.6-3.1,3.3-7.6,1.3-11.4c-2.6-4.9-8.8-6.8-13.7-4.2
			c-3.4,1.8-5.4,5.4-5.4,9C844.6,11,852.3,13.5,855.6,19.7z"/>
		
			<ellipse transform="matrix(0.7516 -0.6597 0.6597 0.7516 192.6437 563.2353)" class="st1" cx="844.1" cy="25.9" rx="10.1" ry="10.1"/>
	</g>
	<g>
		<path class="st0" d="M38.9,22.1l-4.8,3.6c-0.2,0-0.4,0-0.7,0l4.5-4.9C38.2,21.2,38.5,21.7,38.9,22.1z"/>
		<path class="st0" d="M24.5,25.2l7.3-7.8l-6.3-1.1L17,23.1l6.9-7.1l-13.1-2.3l13.3,1.7l-4.5-9l6.1,9.1l0.1,0.1l6.3,0.8l-4.7-9.8
			l7,10l0.1,0.1l2.1,0.3c0.1,0.5,0.2,0.9,0.4,1.4l-2.7-0.5L24.5,25.2z"/>
		<path class="st0" d="M37,9.4c-0.1,0.3-0.2,0.6-0.3,0.9l-1.6-3.5L37,9.4z"/>
		<path class="st1" d="M37,9.4l-1.9-2.6l1.6,3.5c-0.7,2.2-0.7,4.5-0.3,6.6l-2.1-0.3l-0.1-0.1l-7-10l4.7,9.8l-6.3-0.8l-0.1-0.1
			l-6.1-9.1l4.5,9l-13.3-1.7L23.9,16L17,23.1l8.5-6.8l6.3,1.1l-7.3,7.8l9.6-7.4l2.7,0.5c0.3,0.8,0.7,1.7,1.1,2.4l-4.5,4.9
			c-0.4,0-0.9-0.1-1.3-0.2L28.9,25l-0.2,3.3c0,0.6-0.1,1.2-0.2,1.7c-1-0.3-2-0.5-3-0.6c-3.1-0.5-6.2-0.4-9,0.1
			C15.6,21.9,9.2,15.1,0.1,12C9.8,11.7,18,7,21.1,0c2.6,1.3,5.4,2.3,8.5,2.7c4.1,0.6,8.1,0.3,11.7-0.7c0.1,0.5,0.2,0.9,0.3,1.4
			c-1.6,1.1-3,2.7-3.9,4.5C37.4,8.4,37.2,8.9,37,9.4z"/>
		<path class="st1" d="M40.6,23.9c-0.1,0.3-0.1,0.7-0.1,1c-2.1,0.6-4.3,0.8-6.4,0.7l4.8-3.6C39.4,22.8,40,23.4,40.6,23.9z"/>
		<path class="st2" d="M42.7,33.2c0.4,0.6,0.8,1.1,1.3,1.6l-10,0.9L42.7,33.2z"/>
		<path class="st2" d="M48.2,37.8c0.7,0.3,1.3,0.5,2,0.7l2.2,7L48.2,37.8z"/>
		<path class="st1" d="M42.7,33.2l-8.7,2.6l10-0.9c0.3,0.3,0.7,0.7,1,1l-1.9,3.9l-0.1,0L31.3,43l10.8-1.2l-2.8,5.7l-0.1,0l-10.6,2.7
			l9.9-1.3l-6,12l6.6-11.6l4.4,8.8L39.9,48l3.1-5.5l5,9.5l-3.8-11.5l2.1-3.7c0.4,0.3,0.8,0.5,1.2,0.7c0.3,0.1,0.5,0.3,0.8,0.4
			l4.2,7.8l-2.2-7c2.1,0.6,4.3,0.6,6.4,0.1c0.9,1.7,2,3.3,3.3,4.7c-3,2.3-5.6,5.3-7.6,9c-1.5,2.8-2.4,5.7-2.9,8.5
			c-7.4-1.6-16,2.2-21.9,9.7c3-9.2,1.3-18.5-4.4-23.8c2.1-2,3.9-4.4,5.4-7.1c1.9-3.7,3-7.5,3.2-11.2c2.9,0.5,6,0.3,9-0.4
			C40.9,29.9,41.7,31.6,42.7,33.2z"/>
		<path class="st1" d="M42,19.7c-0.2,0.3-0.3,0.7-0.5,1c-2.6-3.1-3.3-7.6-1.3-11.4C42.9,4.4,49,2.5,54,5.1c3.4,1.8,5.4,5.4,5.4,9
			C53,11,45.3,13.5,42,19.7z"/>
		
			<ellipse transform="matrix(0.6597 -0.7516 0.7516 0.6597 -1.2117 49.0392)" class="st1" cx="53.5" cy="25.9" rx="10.1" ry="10.1"/>
	</g>
</g>
</svg>
